<mxfile host="65bd71144e">
    <diagram id="DMcfhGFQ7aUDe7nnql6O" name="第 1 页">
        <mxGraphModel dx="2818" dy="886" grid="1" gridSize="10" guides="1" tooltips="1" connect="1" arrows="1" fold="1" page="1" pageScale="1" pageWidth="827" pageHeight="1169" math="0" shadow="0">
            <root>
                <mxCell id="0"/>
                <mxCell id="1" parent="0"/>
                <mxCell id="19" value="" style="edgeStyle=none;html=1;fontSize=25;" edge="1" parent="1" source="2" target="6">
                    <mxGeometry relative="1" as="geometry"/>
                </mxCell>
                <mxCell id="2" value="&lt;font style=&quot;font-size: 25px;&quot;&gt;开始&lt;/font&gt;" style="rounded=1;whiteSpace=wrap;html=1;arcSize=50;" vertex="1" parent="1">
                    <mxGeometry x="340" y="30" width="120" height="60" as="geometry"/>
                </mxCell>
                <mxCell id="6" value="用户输入服务器IP" style="rounded=0;whiteSpace=wrap;html=1;fontSize=25;" vertex="1" parent="1">
                    <mxGeometry x="340" y="160" width="120" height="60" as="geometry"/>
                </mxCell>
                <mxCell id="26" value="" style="edgeStyle=none;html=1;fontSize=25;" edge="1" parent="1" source="7" target="8">
                    <mxGeometry relative="1" as="geometry">
                        <Array as="points">
                            <mxPoint x="400" y="400"/>
                        </Array>
                    </mxGeometry>
                </mxCell>
                <mxCell id="7" value="是否连接&lt;br&gt;成功" style="html=1;whiteSpace=wrap;aspect=fixed;shape=isoRectangle;fontSize=25;" vertex="1" parent="1">
                    <mxGeometry x="325" y="270" width="150" height="90" as="geometry"/>
                </mxCell>
                <mxCell id="29" value="" style="edgeStyle=none;html=1;fontSize=25;" edge="1" parent="1" source="8" target="9">
                    <mxGeometry relative="1" as="geometry"/>
                </mxCell>
                <mxCell id="8" value="用户输入&lt;br&gt;监听拱棚节点标识" style="rounded=0;whiteSpace=wrap;html=1;fontSize=25;" vertex="1" parent="1">
                    <mxGeometry x="294" y="410" width="240" height="90" as="geometry"/>
                </mxCell>
                <mxCell id="9" value="等待服务器回应" style="html=1;whiteSpace=wrap;aspect=fixed;shape=isoRectangle;fontSize=25;" vertex="1" parent="1">
                    <mxGeometry x="339" y="550" width="150" height="90" as="geometry"/>
                </mxCell>
                <mxCell id="40" value="" style="edgeStyle=none;html=1;fontSize=25;" edge="1" parent="1" source="10" target="12">
                    <mxGeometry relative="1" as="geometry"/>
                </mxCell>
                <mxCell id="10" value="每2s向服务器发起一次拱棚数据读取请求" style="shape=ext;double=1;rounded=0;whiteSpace=wrap;html=1;fontSize=25;" vertex="1" parent="1">
                    <mxGeometry x="170" y="740" width="190" height="100" as="geometry"/>
                </mxCell>
                <mxCell id="39" value="" style="edgeStyle=none;html=1;fontSize=25;" edge="1" parent="1" source="11" target="13">
                    <mxGeometry relative="1" as="geometry"/>
                </mxCell>
                <mxCell id="11" value="用户发起夺取&lt;br&gt;节点控制权请求" style="shape=ext;double=1;rounded=0;whiteSpace=wrap;html=1;fontSize=25;" vertex="1" parent="1">
                    <mxGeometry x="480" y="740" width="170" height="100" as="geometry"/>
                </mxCell>
                <mxCell id="41" value="" style="edgeStyle=none;html=1;fontSize=25;" edge="1" parent="1" source="12" target="37">
                    <mxGeometry relative="1" as="geometry"/>
                </mxCell>
                <mxCell id="12" value="等待服务器回应" style="html=1;whiteSpace=wrap;aspect=fixed;shape=isoRectangle;fontSize=25;" vertex="1" parent="1">
                    <mxGeometry x="190" y="895" width="150" height="90" as="geometry"/>
                </mxCell>
                <mxCell id="42" value="" style="edgeStyle=none;html=1;fontSize=25;" edge="1" parent="1" source="13" target="38">
                    <mxGeometry relative="1" as="geometry"/>
                </mxCell>
                <mxCell id="45" value="" style="edgeStyle=none;html=1;fontSize=25;" edge="1" parent="1" source="13" target="15">
                    <mxGeometry relative="1" as="geometry"/>
                </mxCell>
                <mxCell id="13" value="等待服务器&lt;br&gt;回应" style="html=1;whiteSpace=wrap;aspect=fixed;shape=isoRectangle;fontSize=25;" vertex="1" parent="1">
                    <mxGeometry x="490" y="895" width="150" height="90" as="geometry"/>
                </mxCell>
                <mxCell id="46" value="" style="edgeStyle=none;html=1;fontSize=25;" edge="1" parent="1" source="15" target="16">
                    <mxGeometry relative="1" as="geometry"/>
                </mxCell>
                <mxCell id="15" value="用户发送控制信息" style="shape=ext;double=1;rounded=0;whiteSpace=wrap;html=1;fontSize=25;" vertex="1" parent="1">
                    <mxGeometry x="505" y="1040" width="120" height="80" as="geometry"/>
                </mxCell>
                <mxCell id="48" value="" style="edgeStyle=none;html=1;fontSize=25;" edge="1" parent="1" source="16" target="47">
                    <mxGeometry relative="1" as="geometry"/>
                </mxCell>
                <mxCell id="16" value="等待服务器回应" style="html=1;whiteSpace=wrap;aspect=fixed;shape=isoRectangle;fontSize=25;" vertex="1" parent="1">
                    <mxGeometry x="490" y="1169" width="150" height="90" as="geometry"/>
                </mxCell>
                <mxCell id="17" value="更新用户端显示信息" style="shape=ext;double=1;rounded=0;whiteSpace=wrap;html=1;fontSize=25;" vertex="1" parent="1">
                    <mxGeometry x="315" y="1360" width="150" height="80" as="geometry"/>
                </mxCell>
                <mxCell id="18" value="用户端报错" style="shape=ext;double=1;rounded=0;whiteSpace=wrap;html=1;fontSize=25;" vertex="1" parent="1">
                    <mxGeometry x="100" y="280" width="120" height="80" as="geometry"/>
                </mxCell>
                <mxCell id="20" value="" style="endArrow=classic;html=1;fontSize=25;" edge="1" parent="1">
                    <mxGeometry width="50" height="50" relative="1" as="geometry">
                        <mxPoint x="399.6" y="220" as="sourcePoint"/>
                        <mxPoint x="399.6" y="270" as="targetPoint"/>
                        <Array as="points">
                            <mxPoint x="399.6" y="240"/>
                        </Array>
                    </mxGeometry>
                </mxCell>
                <mxCell id="22" value="" style="endArrow=classic;html=1;fontSize=25;entryX=0.995;entryY=0.433;entryDx=0;entryDy=0;exitX=0.012;exitY=0.502;exitDx=0;exitDy=0;exitPerimeter=0;entryPerimeter=0;" edge="1" parent="1" source="7" target="18">
                    <mxGeometry width="50" height="50" relative="1" as="geometry">
                        <mxPoint x="280" y="340" as="sourcePoint"/>
                        <mxPoint x="330" y="290" as="targetPoint"/>
                        <Array as="points"/>
                    </mxGeometry>
                </mxCell>
                <mxCell id="25" value="" style="endArrow=classic;html=1;fontSize=25;entryX=0;entryY=0.333;entryDx=0;entryDy=0;entryPerimeter=0;" edge="1" parent="1" target="6">
                    <mxGeometry width="50" height="50" relative="1" as="geometry">
                        <mxPoint x="100" y="320" as="sourcePoint"/>
                        <mxPoint x="190" y="180" as="targetPoint"/>
                        <Array as="points">
                            <mxPoint x="80" y="320"/>
                            <mxPoint x="80" y="180"/>
                        </Array>
                    </mxGeometry>
                </mxCell>
                <mxCell id="27" value="用户退出" style="shape=ext;double=1;rounded=0;whiteSpace=wrap;html=1;fontSize=25;" vertex="1" parent="1">
                    <mxGeometry x="-160" y="275" width="120" height="80" as="geometry"/>
                </mxCell>
                <mxCell id="28" value="" style="endArrow=classic;html=1;fontSize=25;entryX=0.578;entryY=0.001;entryDx=0;entryDy=0;entryPerimeter=0;" edge="1" parent="1" target="27">
                    <mxGeometry width="50" height="50" relative="1" as="geometry">
                        <mxPoint x="400" y="140" as="sourcePoint"/>
                        <mxPoint x="570" y="260" as="targetPoint"/>
                        <Array as="points">
                            <mxPoint x="-90" y="140"/>
                        </Array>
                    </mxGeometry>
                </mxCell>
                <mxCell id="31" value="用户端报错" style="shape=ext;double=1;rounded=0;whiteSpace=wrap;html=1;fontSize=25;" vertex="1" parent="1">
                    <mxGeometry x="100" y="555" width="120" height="80" as="geometry"/>
                </mxCell>
                <mxCell id="32" value="" style="endArrow=classic;html=1;fontSize=25;entryX=1;entryY=0.5;entryDx=0;entryDy=0;exitX=-0.007;exitY=0.499;exitDx=0;exitDy=0;exitPerimeter=0;" edge="1" parent="1" source="9" target="31">
                    <mxGeometry width="50" height="50" relative="1" as="geometry">
                        <mxPoint x="250" y="600" as="sourcePoint"/>
                        <mxPoint x="300" y="550" as="targetPoint"/>
                    </mxGeometry>
                </mxCell>
                <mxCell id="33" value="" style="endArrow=classic;html=1;fontSize=25;exitX=0;exitY=0.5;exitDx=0;exitDy=0;" edge="1" parent="1" source="31">
                    <mxGeometry width="50" height="50" relative="1" as="geometry">
                        <mxPoint x="80" y="500" as="sourcePoint"/>
                        <mxPoint x="400" y="390" as="targetPoint"/>
                        <Array as="points">
                            <mxPoint x="30" y="595"/>
                            <mxPoint x="30" y="390"/>
                        </Array>
                    </mxGeometry>
                </mxCell>
                <mxCell id="34" value="" style="endArrow=classic;html=1;fontSize=25;exitX=0.506;exitY=0.996;exitDx=0;exitDy=0;exitPerimeter=0;" edge="1" parent="1" source="9">
                    <mxGeometry width="50" height="50" relative="1" as="geometry">
                        <mxPoint x="400" y="660" as="sourcePoint"/>
                        <mxPoint x="415" y="680" as="targetPoint"/>
                    </mxGeometry>
                </mxCell>
                <mxCell id="35" value="" style="endArrow=classic;html=1;fontSize=25;entryX=0.5;entryY=0;entryDx=0;entryDy=0;" edge="1" parent="1" target="11">
                    <mxGeometry width="50" height="50" relative="1" as="geometry">
                        <mxPoint x="420" y="680" as="sourcePoint"/>
                        <mxPoint x="590" y="680" as="targetPoint"/>
                        <Array as="points">
                            <mxPoint x="565" y="680"/>
                        </Array>
                    </mxGeometry>
                </mxCell>
                <mxCell id="36" value="" style="endArrow=classic;html=1;fontSize=25;entryX=0.5;entryY=0;entryDx=0;entryDy=0;" edge="1" parent="1" target="10">
                    <mxGeometry width="50" height="50" relative="1" as="geometry">
                        <mxPoint x="410" y="680" as="sourcePoint"/>
                        <mxPoint x="220" y="670" as="targetPoint"/>
                        <Array as="points">
                            <mxPoint x="265" y="680"/>
                        </Array>
                    </mxGeometry>
                </mxCell>
                <mxCell id="37" value="用户端报错" style="shape=ext;double=1;rounded=0;whiteSpace=wrap;html=1;fontSize=25;" vertex="1" parent="1">
                    <mxGeometry x="-10" y="900" width="120" height="80" as="geometry"/>
                </mxCell>
                <mxCell id="38" value="用户端报错" style="shape=ext;double=1;rounded=0;whiteSpace=wrap;html=1;fontSize=25;" vertex="1" parent="1">
                    <mxGeometry x="720" y="900" width="120" height="80" as="geometry"/>
                </mxCell>
                <mxCell id="43" value="" style="endArrow=classic;html=1;fontSize=25;exitX=0.37;exitY=0.015;exitDx=0;exitDy=0;exitPerimeter=0;entryX=0.315;entryY=-0.029;entryDx=0;entryDy=0;entryPerimeter=0;" edge="1" parent="1" source="37" target="10">
                    <mxGeometry width="50" height="50" relative="1" as="geometry">
                        <mxPoint x="20" y="840" as="sourcePoint"/>
                        <mxPoint x="270" y="680" as="targetPoint"/>
                        <Array as="points">
                            <mxPoint x="34" y="680"/>
                            <mxPoint x="230" y="680"/>
                        </Array>
                    </mxGeometry>
                </mxCell>
                <mxCell id="44" value="" style="endArrow=classic;html=1;fontSize=25;entryX=0.593;entryY=-0.019;entryDx=0;entryDy=0;entryPerimeter=0;" edge="1" parent="1" target="11">
                    <mxGeometry width="50" height="50" relative="1" as="geometry">
                        <mxPoint x="800" y="900" as="sourcePoint"/>
                        <mxPoint x="590" y="680" as="targetPoint"/>
                        <Array as="points">
                            <mxPoint x="800" y="680"/>
                            <mxPoint x="581" y="680"/>
                        </Array>
                    </mxGeometry>
                </mxCell>
                <mxCell id="47" value="用户端报错" style="shape=ext;double=1;rounded=0;whiteSpace=wrap;html=1;fontSize=25;" vertex="1" parent="1">
                    <mxGeometry x="707" y="1174" width="120" height="80" as="geometry"/>
                </mxCell>
                <mxCell id="49" value="" style="endArrow=classic;html=1;fontSize=25;exitX=1;exitY=0.5;exitDx=0;exitDy=0;" edge="1" parent="1" source="47">
                    <mxGeometry width="50" height="50" relative="1" as="geometry">
                        <mxPoint x="870" y="1230" as="sourcePoint"/>
                        <mxPoint x="800" y="680" as="targetPoint"/>
                        <Array as="points">
                            <mxPoint x="890" y="1214"/>
                            <mxPoint x="890" y="680"/>
                        </Array>
                    </mxGeometry>
                </mxCell>
                <mxCell id="50" value="" style="endArrow=classic;html=1;fontSize=25;entryX=0;entryY=0.5;entryDx=0;entryDy=0;exitX=0.517;exitY=0.962;exitDx=0;exitDy=0;exitPerimeter=0;" edge="1" parent="1" source="12" target="17">
                    <mxGeometry width="50" height="50" relative="1" as="geometry">
                        <mxPoint x="240" y="1110" as="sourcePoint"/>
                        <mxPoint x="230" y="1390" as="targetPoint"/>
                        <Array as="points">
                            <mxPoint x="270" y="1400"/>
                        </Array>
                    </mxGeometry>
                </mxCell>
                <mxCell id="51" value="" style="endArrow=classic;html=1;fontSize=25;entryX=1;entryY=0.5;entryDx=0;entryDy=0;exitX=0.494;exitY=0.978;exitDx=0;exitDy=0;exitPerimeter=0;" edge="1" parent="1" source="16" target="17">
                    <mxGeometry width="50" height="50" relative="1" as="geometry">
                        <mxPoint x="560" y="1260" as="sourcePoint"/>
                        <mxPoint x="500" y="1400" as="targetPoint"/>
                        <Array as="points">
                            <mxPoint x="560" y="1400"/>
                        </Array>
                    </mxGeometry>
                </mxCell>
                <mxCell id="52" value="" style="endArrow=classic;html=1;fontSize=25;exitX=0.5;exitY=1;exitDx=0;exitDy=0;exitPerimeter=0;" edge="1" parent="1" source="17">
                    <mxGeometry width="50" height="50" relative="1" as="geometry">
                        <mxPoint x="390" y="1460" as="sourcePoint"/>
                        <mxPoint x="390" y="1530" as="targetPoint"/>
                    </mxGeometry>
                </mxCell>
                <mxCell id="55" value="结束" style="shape=ext;double=1;rounded=1;whiteSpace=wrap;html=1;fontSize=25;arcSize=50;" vertex="1" parent="1">
                    <mxGeometry x="330" y="1580" width="120" height="80" as="geometry"/>
                </mxCell>
                <mxCell id="56" value="" style="endArrow=classic;html=1;fontSize=25;entryX=0;entryY=0.5;entryDx=0;entryDy=0;exitX=0.5;exitY=1;exitDx=0;exitDy=0;" edge="1" parent="1" source="27" target="55">
                    <mxGeometry width="50" height="50" relative="1" as="geometry">
                        <mxPoint x="-130" y="1270" as="sourcePoint"/>
                        <mxPoint x="-170" y="1340" as="targetPoint"/>
                        <Array as="points">
                            <mxPoint x="-100" y="1620"/>
                        </Array>
                    </mxGeometry>
                </mxCell>
                <mxCell id="57" value="" style="endArrow=classic;html=1;fontSize=25;" edge="1" parent="1">
                    <mxGeometry width="50" height="50" relative="1" as="geometry">
                        <mxPoint x="390" y="1530" as="sourcePoint"/>
                        <mxPoint x="40" y="680" as="targetPoint"/>
                        <Array as="points">
                            <mxPoint x="-50" y="1530"/>
                            <mxPoint x="-50" y="680"/>
                        </Array>
                    </mxGeometry>
                </mxCell>
                <mxCell id="58" value="" style="endArrow=classic;html=1;fontSize=25;" edge="1" parent="1">
                    <mxGeometry width="50" height="50" relative="1" as="geometry">
                        <mxPoint x="390" y="1530" as="sourcePoint"/>
                        <mxPoint x="890" y="1210" as="targetPoint"/>
                        <Array as="points">
                            <mxPoint x="890" y="1530"/>
                        </Array>
                    </mxGeometry>
                </mxCell>
                <mxCell id="59" value="" style="endArrow=classic;html=1;fontSize=25;exitX=0.94;exitY=0.489;exitDx=0;exitDy=0;exitPerimeter=0;entryX=1;entryY=0.5;entryDx=0;entryDy=0;" edge="1" parent="1" source="7" target="55">
                    <mxGeometry width="50" height="50" relative="1" as="geometry">
                        <mxPoint x="640" y="370" as="sourcePoint"/>
                        <mxPoint x="1020" y="1620" as="targetPoint"/>
                        <Array as="points">
                            <mxPoint x="920" y="310"/>
                            <mxPoint x="920" y="1620"/>
                        </Array>
                    </mxGeometry>
                </mxCell>
                <mxCell id="60" value="" style="endArrow=classic;html=1;fontSize=25;" edge="1" parent="1">
                    <mxGeometry width="50" height="50" relative="1" as="geometry">
                        <mxPoint x="340" y="939.58" as="sourcePoint"/>
                        <mxPoint x="420" y="940" as="targetPoint"/>
                        <Array as="points"/>
                    </mxGeometry>
                </mxCell>
                <mxCell id="62" value="" style="endArrow=classic;html=1;fontSize=25;exitX=0;exitY=0.5;exitDx=0;exitDy=0;exitPerimeter=0;" edge="1" parent="1" source="13">
                    <mxGeometry width="50" height="50" relative="1" as="geometry">
                        <mxPoint x="430" y="980" as="sourcePoint"/>
                        <mxPoint x="420" y="940" as="targetPoint"/>
                        <Array as="points">
                            <mxPoint x="420" y="940"/>
                        </Array>
                    </mxGeometry>
                </mxCell>
                <mxCell id="63" value="" style="endArrow=classic;html=1;fontSize=25;" edge="1" parent="1">
                    <mxGeometry width="50" height="50" relative="1" as="geometry">
                        <mxPoint x="420" y="940" as="sourcePoint"/>
                        <mxPoint x="170" y="1620" as="targetPoint"/>
                        <Array as="points">
                            <mxPoint x="420" y="1150"/>
                            <mxPoint x="170" y="1150"/>
                        </Array>
                    </mxGeometry>
                </mxCell>
                <mxCell id="76" value="" style="endArrow=classic;html=1;fontSize=25;exitX=0.976;exitY=0.537;exitDx=0;exitDy=0;exitPerimeter=0;" edge="1" parent="1" source="9">
                    <mxGeometry width="50" height="50" relative="1" as="geometry">
                        <mxPoint x="550" y="600" as="sourcePoint"/>
                        <mxPoint x="920" y="598" as="targetPoint"/>
                    </mxGeometry>
                </mxCell>
            </root>
        </mxGraphModel>
    </diagram>
</mxfile>